<svg xmlns="http://www.w3.org/2000/svg" width="1130" height="899" fill="none" viewBox="0 0 1130 899"><path stroke="#C5C7C9" stroke-width="2" d="M188.202 841.016a467.304 467.304 0 0 1-88.607-237.43 467.42 467.42 0 0 1 48.338-248.796 466.812 466.812 0 0 1 171.042-186.876A466.134 466.134 0 0 1 562.34 98.005a466.126 466.126 0 0 1 244.001 67.65 466.794 466.794 0 0 1 172.764 185.282 467.443 467.443 0 0 1 50.635 248.337 467.291 467.291 0 0 1-86.404 238.242"/><path stroke="#C5C7C9" stroke-width="2" d="M110.054 898.347a564 564 0 1 1 956.206-591.873 564.062 564.062 0 0 1 61.22 299.919 563.99 563.99 0 0 1-104.47 287.726"/></svg>