<svg xmlns="http://www.w3.org/2000/svg" width="652" height="330" fill="none" viewBox="0 0 652 330"><path fill="#A0C74F" d="M0 0h652v330H0z"/><path fill="#5E419D" d="M83.016 132.094h2.75v18.14l12.187-18.14H101V155h-2.75v-18.094L86.047 155h-3.031v-22.906ZM106.062 155v-22.906h3.032v9.406H121v-9.406h3.031V155H121v-10.797h-11.906V155h-3.032Zm28.86 0v-20.203h-7.547v-2.703h18.156v2.703h-7.578V155h-3.031Zm13.797 0v-22.906h16.562v2.703H151.75v7.015h12.672v2.688H151.75v7.797h14.062V155h-17.093ZM170 155v-22.906h8.641c1.52 0 2.682.073 3.484.218 1.125.188 2.068.547 2.828 1.079.761.52 1.37 1.255 1.828 2.203.469.948.703 1.989.703 3.125 0 1.948-.619 3.599-1.859 4.953-1.24 1.344-3.479 2.016-6.719 2.016h-5.875V155H170Zm3.031-12.016h5.922c1.958 0 3.349-.364 4.172-1.093.823-.73 1.234-1.756 1.234-3.079 0-.958-.244-1.776-.734-2.453a3.354 3.354 0 0 0-1.906-1.359c-.511-.135-1.453-.203-2.828-.203h-5.86v8.187ZM191.219 155v-22.906h8.593c1.75 0 3.152.234 4.204.703a5.305 5.305 0 0 1 2.484 2.141c.604.958.906 1.963.906 3.015a5.19 5.19 0 0 1-.797 2.766c-.531.864-1.333 1.562-2.406 2.093 1.386.407 2.448 1.099 3.188 2.079.75.979 1.125 2.135 1.125 3.468 0 1.073-.23 2.073-.688 3-.448.917-1.005 1.625-1.672 2.125-.666.5-1.505.881-2.515 1.141-1 .25-2.23.375-3.688.375h-8.734Zm3.031-13.281h4.953c1.344 0 2.307-.089 2.891-.266.771-.229 1.349-.609 1.734-1.141.396-.531.594-1.197.594-2 0-.76-.182-1.427-.547-2a2.723 2.723 0 0 0-1.563-1.187c-.677-.219-1.838-.328-3.484-.328h-4.578v6.922Zm0 10.578h5.703c.979 0 1.667-.037 2.063-.109.698-.126 1.281-.334 1.75-.626.468-.291.854-.713 1.156-1.265.302-.563.453-1.208.453-1.938 0-.854-.219-1.593-.656-2.218-.438-.636-1.047-1.079-1.828-1.329-.771-.26-1.886-.39-3.344-.39h-5.297v7.875Zm18.547-20.203h3.031v9.781h5.469c2.552 0 4.401.297 5.547.891 1.146.593 1.968 1.401 2.468 2.422.5 1.02.75 2.072.75 3.156 0 1.771-.604 3.323-1.812 4.656-1.208 1.333-3.458 2-6.75 2h-8.703v-22.906Zm3.031 20.328h5.547c2.25 0 3.714-.396 4.391-1.188.687-.802 1.031-1.765 1.031-2.89 0-.917-.25-1.693-.75-2.328-.49-.646-1.146-1.063-1.969-1.25-.823-.188-2.219-.282-4.187-.282h-4.063v7.938Zm17.953-20.328h3.031v10.281h4.407c.219-3.25 1.286-5.839 3.203-7.766 1.917-1.937 4.292-2.906 7.125-2.906 2.989 0 5.463 1.052 7.422 3.156 1.969 2.105 2.953 4.959 2.953 8.563 0 3.75-.979 6.682-2.938 8.797-1.958 2.114-4.463 3.172-7.515 3.172-2.771 0-5.084-.912-6.938-2.735-1.843-1.833-2.927-4.364-3.25-7.594h-4.469V155h-3.031v-22.906Zm10.485 11.562c0 2.896.666 5.146 2 6.75 1.333 1.594 3.083 2.391 5.25 2.391 2.218 0 3.989-.802 5.312-2.406 1.323-1.605 1.984-3.912 1.984-6.922 0-2.854-.651-5.099-1.953-6.735-1.302-1.645-3.062-2.468-5.281-2.468-2.26 0-4.047.833-5.359 2.5-1.302 1.656-1.953 3.953-1.953 6.89Zm47.015 3.313 3.031.765c-.635 2.49-1.781 4.391-3.437 5.704-1.646 1.302-3.661 1.953-6.047 1.953-2.469 0-4.479-.5-6.031-1.5-1.542-1.011-2.719-2.469-3.531-4.375-.802-1.907-1.204-3.954-1.204-6.141 0-2.385.454-4.464 1.36-6.234.917-1.782 2.213-3.131 3.89-4.047 1.688-.927 3.542-1.391 5.563-1.391 2.292 0 4.219.583 5.781 1.75 1.563 1.167 2.651 2.807 3.266 4.922l-2.984.703c-.532-1.667-1.303-2.88-2.313-3.64-1.01-.761-2.281-1.141-3.813-1.141-1.76 0-3.234.422-4.421 1.265-1.177.844-2.006 1.98-2.485 3.407a13.61 13.61 0 0 0-.718 4.39c0 1.948.281 3.651.843 5.11.573 1.448 1.459 2.531 2.657 3.25a7.42 7.42 0 0 0 3.89 1.078c1.698 0 3.136-.49 4.313-1.469 1.177-.979 1.974-2.432 2.39-4.359ZM307.062 155v-22.906h3.032v9.406H322v-9.406h3.031V155H322v-10.797h-11.906V155h-3.032Zm20.516 0 8.797-22.906h3.266L349.016 155h-3.454l-2.671-6.938h-9.579L330.797 155h-3.219Zm6.61-9.406h7.765l-2.391-6.344c-.729-1.927-1.27-3.51-1.624-4.75a29.267 29.267 0 0 1-1.235 4.375l-2.515 6.719Zm17.296-13.5h3.032v20.203h7.609v-20.203h3.031v20.203h7.61v-20.203h3.031V155h-24.313v-22.906Zm29.344 0h2.75v18.14l12.188-18.14h3.046V155h-2.75v-18.094L383.859 155h-3.031v-22.906ZM403.688 155v-22.906h4.562l5.422 16.218c.5 1.511.864 2.641 1.094 3.391.26-.833.666-2.057 1.218-3.672l5.485-15.937h4.078V155h-2.922v-19.172L415.969 155h-2.735l-6.625-19.5V155h-2.921Zm26.796-22.906h2.75v18.14l12.188-18.14h3.047V155h-2.75v-18.094L433.516 155h-3.032v-22.906ZM83 174.094h18.016V197h-3.047v-20.203H86.03V197H83v-22.906ZM105.969 197v-22.906h8.64c1.521 0 2.683.073 3.485.218 1.125.188 2.067.547 2.828 1.079.76.52 1.37 1.255 1.828 2.203.469.948.703 1.989.703 3.125 0 1.948-.62 3.599-1.859 4.953-1.24 1.344-3.479 2.016-6.719 2.016H109V197h-3.031ZM109 184.984h5.922c1.958 0 3.349-.364 4.172-1.093.823-.73 1.234-1.756 1.234-3.079 0-.958-.245-1.776-.734-2.453a3.354 3.354 0 0 0-1.906-1.359c-.511-.135-1.454-.203-2.829-.203H109v8.187ZM127.375 197v-22.906h16.563v2.703h-13.532v7.015h12.672v2.688h-12.672v7.797h14.063V197h-17.094Zm21.313-22.906h18.015V197h-3.047v-20.203h-11.937V197h-3.031v-22.906Zm22.046 11.75c0-3.802 1.021-6.776 3.063-8.922 2.042-2.156 4.677-3.234 7.906-3.234 2.115 0 4.021.505 5.719 1.515 1.698 1.011 2.989 2.422 3.875 4.235.896 1.802 1.344 3.848 1.344 6.14 0 2.323-.469 4.401-1.407 6.234-.937 1.834-2.265 3.224-3.984 4.172a11.43 11.43 0 0 1-5.562 1.407c-2.157 0-4.084-.521-5.782-1.563a10.051 10.051 0 0 1-3.859-4.266 12.926 12.926 0 0 1-1.313-5.718Zm3.125.047c0 2.76.74 4.937 2.219 6.531 1.49 1.583 3.354 2.375 5.594 2.375 2.281 0 4.156-.802 5.625-2.406 1.479-1.605 2.219-3.881 2.219-6.829 0-1.864-.318-3.489-.954-4.874-.624-1.396-1.546-2.474-2.765-3.235-1.208-.771-2.568-1.156-4.078-1.156-2.146 0-3.995.739-5.547 2.219-1.542 1.468-2.313 3.927-2.313 7.375Zm24.063-11.797h13.937v20.203h2.063v8.047h-2.703V197h-15.141v5.344h-2.703v-8.047h1.781c1.844-2.781 2.766-8.401 2.766-16.859v-3.344Zm10.906 2.703h-7.984v1.172c0 1.948-.177 4.614-.532 8-.343 3.375-1.026 6.151-2.046 8.328h10.562v-17.5ZM215.016 197l8.796-22.906h3.266L236.453 197H233l-2.672-6.938h-9.578L218.234 197h-3.218Zm6.609-9.406h7.766L227 181.25c-.729-1.927-1.271-3.51-1.625-4.75a29.262 29.262 0 0 1-1.234 4.375l-2.516 6.719ZM238.75 197v-22.906h8.594c1.75 0 3.151.234 4.203.703a5.3 5.3 0 0 1 2.484 2.141c.604.958.907 1.963.907 3.015 0 .979-.266 1.901-.797 2.766-.532.864-1.334 1.562-2.407 2.093 1.386.407 2.448 1.099 3.188 2.079.75.979 1.125 2.135 1.125 3.468a6.668 6.668 0 0 1-.688 3c-.448.917-1.005 1.625-1.671 2.125-.667.5-1.506.881-2.516 1.141-1 .25-2.229.375-3.688.375h-8.734Zm3.031-13.281h4.953c1.344 0 2.308-.089 2.891-.266.771-.229 1.349-.609 1.734-1.141.396-.531.594-1.197.594-2 0-.76-.182-1.427-.547-2a2.72 2.72 0 0 0-1.562-1.187c-.677-.219-1.839-.328-3.485-.328h-4.578v6.922Zm0 10.578h5.703c.98 0 1.667-.037 2.063-.109.698-.126 1.281-.334 1.75-.626.469-.291.854-.713 1.156-1.265.302-.563.453-1.208.453-1.938 0-.854-.218-1.593-.656-2.218-.438-.636-1.047-1.079-1.828-1.329-.771-.26-1.886-.39-3.344-.39h-5.297v7.875Zm14.86 2.703 8.797-22.906h3.265L278.078 197h-3.453l-2.672-6.938h-9.578L259.859 197h-3.218Zm6.609-9.406h7.766l-2.391-6.344c-.729-1.927-1.271-3.51-1.625-4.75a29.262 29.262 0 0 1-1.234 4.375l-2.516 6.719ZM283.828 197v-20.203h-7.547v-2.703h18.157v2.703h-7.579V197h-3.031Zm13.797 0v-22.906h16.563v2.703h-13.532v7.015h12.672v2.688h-12.672v7.797h14.063V197h-17.094Zm22.953-22.906h14.344V197h-3.031v-20.203h-8.282v11.797c0 2.396-.114 4.151-.343 5.265-.219 1.115-.688 1.985-1.407 2.61-.718.614-1.63.922-2.734.922-.667 0-1.469-.125-2.406-.375l.515-2.688c.5.208.927.313 1.282.313.687 0 1.203-.256 1.546-.766.344-.521.516-1.74.516-3.656v-16.125ZM358.031 197H355v-10.172h-3.516c-.781 0-1.343.037-1.687.11a4.627 4.627 0 0 0-1.391.609c-.448.292-.958.802-1.531 1.531-.573.729-1.302 1.781-2.187 3.156L341.656 197h-3.812l3.984-6.234c.792-1.219 1.63-2.235 2.516-3.047.416-.375 1.026-.755 1.828-1.141-2.198-.302-3.823-1.01-4.875-2.125-1.052-1.114-1.578-2.484-1.578-4.109 0-1.261.317-2.412.953-3.453.635-1.042 1.484-1.766 2.547-2.172 1.062-.417 2.614-.625 4.656-.625h10.156V197ZM355 184.203v-7.578h-7.25c-1.698 0-2.943.349-3.734 1.047-.782.698-1.172 1.588-1.172 2.672 0 .739.203 1.427.609 2.062.406.625 1 1.084 1.781 1.375.782.281 1.865.422 3.25.422H355ZM362.938 197v-22.906h4.562l5.422 16.218c.5 1.511.864 2.641 1.094 3.391.26-.833.666-2.057 1.218-3.672l5.485-15.937h4.078V197h-2.922v-19.172L375.219 197h-2.735l-6.625-19.5V197h-2.921Zm26.796-22.906h2.75v18.14l12.188-18.14h3.047V197h-2.75v-18.094L392.766 197h-3.032v-22.906Z"/><rect width="80" height="80" x="491.5" y="125" fill="#5E419D" rx="40"/><path fill="#fff" d="M547 165a2.264 2.264 0 0 1-1.101 1.948l-20.875 12.712a2.326 2.326 0 0 1-3.207-.794 2.28 2.28 0 0 1-.317-1.156v-25.42a2.28 2.28 0 0 1 1.176-1.994 2.326 2.326 0 0 1 2.348.044l20.875 12.712A2.27 2.27 0 0 1 547 165Z"/></svg>